<?xml version="1.0" encoding="utf-8"?>
<!-- Generator: Adobe Illustrator 19.0.0, SVG Export Plug-In . SVG Version: 6.00 Build 0)  -->
<svg version="1.1" id="圖層_1" xmlns="http://www.w3.org/2000/svg" xmlns:xlink="http://www.w3.org/1999/xlink" x="0px" y="0px"
	 viewBox="-223 339.8 147.8 162.1" style="enable-background:new -223 339.8 147.8 162.1;" xml:space="preserve">
<style type="text/css">
	.st0{fill:#FFFFFF;}
</style>
<path id="redo" class="st0" d="M-157,348.5c-1.9-1.1-2.5-3.5-1.4-5.3c1.1-1.9,3.5-2.5,5.3-1.4l33.9,19.6c1.9,1.1,2.5,3.5,1.4,5.3
	l-19.6,33.9c-1.1,1.9-3.5,2.5-5.3,1.4c-1.9-1.1-2.5-3.5-1.4-5.3c0,0,0,0,0,0l17.6-30.5L-157,348.5z M-141.2,493.2
	c1.9,1.1,2.5,3.5,1.4,5.3c-1.1,1.9-3.5,2.5-5.3,1.4l0,0c-8.4-4.9-12.7-7.4-13.5-7.9c-31.3-20.5-41.1-61.8-22.4-94.1l1.1-1.9
	c12.2-21,34.3-34.3,58.6-35.2c2.2-0.1,4,1.6,4,3.8c0.1,2.2-1.6,4-3.8,4c-21.6,0.8-41.3,12.6-52.1,31.3l-1.1,1.9
	c-16.6,28.8-7.9,65.5,19.9,83.7C-153.7,485.9-149.2,488.5-141.2,493.2z"/>
</svg>
