<?xml version="1.0" encoding="utf-8"?>
<!-- Generator: Adobe Illustrator 19.0.0, SVG Export Plug-In . SVG Version: 6.00 Build 0)  -->
<svg version="1.1" id="圖層_1" xmlns="http://www.w3.org/2000/svg" xmlns:xlink="http://www.w3.org/1999/xlink" x="0px" y="0px"
	 viewBox="-217 340.5 160.4 160.4" style="enable-background:new -217 340.5 160.4 160.4;" xml:space="preserve">
<style type="text/css">
	.st0{fill:#FFFFFF;}
</style>
<path id="redo" class="st0" d="M-147.9,492.6c1.5,1.5,1.5,4,0,5.5c-1.5,1.5-4,1.5-5.5,0l-27.7-27.7c-1.5-1.5-1.5-4,0-5.5l27.7-27.7
	c1.5-1.5,4-1.5,5.5,0c1.5,1.5,1.5,4,0,5.5c0,0,0,0,0,0l-24.9,24.9L-147.9,492.6z M-125.7,348.8c-1.5-1.5-1.5-4,0-5.5
	c1.5-1.5,4-1.5,5.5,0l0,0c6.8,6.9,10.4,10.4,11,11.1c24.9,27.8,23.7,70.3-2.7,96.7l-1.6,1.6c-17.2,17.2-42,24.3-65.7,18.8
	c-2.1-0.5-3.4-2.6-2.9-4.7c0.5-2.1,2.6-3.4,4.7-2.9c21.1,4.9,43.1-1.5,58.4-16.7l1.6-1.6c23.5-23.5,24.5-61.2,2.4-86
	C-115.5,359.1-119.2,355.4-125.7,348.8z"/>
</svg>
