<svg xmlns="http://www.w3.org/2000/svg" width="147.776" height="162.092" viewBox="0 0 147.776 162.092">
  <path id="redo" d="M128.152,9.911a3.911,3.911,0,1,1,7.822,0v39.11a3.911,3.911,0,0,1-3.911,3.911H92.953a3.911,3.911,0,1,1,0-7.822h35.2ZM10.822,95.962A3.911,3.911,0,0,1,3,95.944c.023-9.666.056-14.714.107-15.642A70.4,70.4,0,0,1,73.4,13.822h2.214A70.481,70.481,0,0,1,135.38,46.948a3.911,3.911,0,0,1-6.633,4.146,62.658,62.658,0,0,0-53.135-29.45H73.4A62.579,62.579,0,0,0,10.918,80.731C10.879,81.438,10.844,86.68,10.822,95.962Z" transform="translate(-6.696 114.758) rotate(-60)" fill="#727272"/>
</svg>
