<svg id="_ionicons_svg_logo-instagram" xmlns="http://www.w3.org/2000/svg" width="25" height="25" viewBox="0 0 25 25">
  <path id="パス_2" data-name="パス 2" d="M81.708,66.083a5.224,5.224,0,0,1,5.208,5.208V81.708a5.224,5.224,0,0,1-5.208,5.208H71.292a5.224,5.224,0,0,1-5.208-5.208V71.292a5.224,5.224,0,0,1,5.208-5.208H81.708m0-2.083H71.292A7.313,7.313,0,0,0,64,71.292V81.708A7.313,7.313,0,0,0,71.292,89H81.708A7.313,7.313,0,0,0,89,81.708V71.292A7.313,7.313,0,0,0,81.708,64Z" transform="translate(-64 -64)" fill="#fff"/>
  <path id="パス_3" data-name="パス 3" d="M171.77,130.825a1.412,1.412,0,1,1,1.412-1.412A1.409,1.409,0,0,1,171.77,130.825Zm-6.12.942a3.766,3.766,0,1,1-3.766,3.766,3.77,3.77,0,0,1,3.766-3.766m0-1.883a5.649,5.649,0,1,0,5.649,5.649A5.651,5.651,0,0,0,165.649,129.883Z" transform="translate(-152.909 -123.273)" fill="#fff"/>
</svg>
