<svg xmlns="http://www.w3.org/2000/svg" width="30.723" height="25" viewBox="0 0 30.723 25">
  <path id="_ionicons_svg_logo-twitter" d="M50.823,66.962a12.744,12.744,0,0,1-3.62,1,6.325,6.325,0,0,0,2.773-3.49,12.525,12.525,0,0,1-4,1.53,6.3,6.3,0,0,0-10.9,4.31,6.171,6.171,0,0,0,.163,1.439,17.863,17.863,0,0,1-12.995-6.6,6.316,6.316,0,0,0,1.96,8.424,6.156,6.156,0,0,1-2.865-.788v.078a6.309,6.309,0,0,0,5.059,6.185,6.345,6.345,0,0,1-1.66.221,5.947,5.947,0,0,1-1.185-.117,6.313,6.313,0,0,0,5.892,4.382,12.638,12.638,0,0,1-7.832,2.7,12.777,12.777,0,0,1-1.5-.091A17.618,17.618,0,0,0,29.748,89C41.356,89,47.7,79.384,47.7,71.044c0-.273-.007-.547-.02-.814A12.831,12.831,0,0,0,50.823,66.962Z" transform="translate(-20.1 -64)" fill="#fff"/>
</svg>
