<svg xmlns="http://www.w3.org/2000/svg" width="33.327" height="25" viewBox="0 0 33.327 25">
  <path id="_ionicons_svg_logo-youtube" d="M33.1,69.521a5.06,5.06,0,0,0-4.817-5.286C24.68,64.065,21,64,17.246,64H16.074c-3.75,0-7.434.065-11.041.234a5.072,5.072,0,0,0-4.811,5.3c-.163,2.318-.234,4.635-.228,6.953s.065,4.635.221,6.959a5.078,5.078,0,0,0,4.811,5.306c3.789.176,7.675.254,11.627.247q5.937.02,11.627-.247A5.078,5.078,0,0,0,33.1,83.446c.156-2.324.228-4.642.221-6.966Q33.339,73,33.1,69.521ZM13.47,82.873V70.08l9.44,6.393Z" transform="translate(0.006 -64)" fill="#fff"/>
</svg>
